# Blender 3.6.2
# www.blender.org
o Base
v -0.201752 0.260785 0.397507
v 0.048971 0.242547 0.382964
v -0.201752 0.260785 -0.402493
v 0.048971 0.242547 -0.382964
v -0.048971 -0.258381 0.400000
v 0.048971 -0.242547 0.382964
v -0.048971 -0.258381 -0.400000
v 0.048971 -0.242547 -0.382964
v 0.048971 0.260785 0.400000
v 0.048971 0.260785 -0.400000
v 0.048971 -0.258381 -0.400000
v 0.048971 -0.258381 0.400000
v 0.028108 0.242547 0.382964
v 0.028108 0.242547 -0.382964
v 0.028108 -0.242547 -0.382964
v 0.028108 -0.242547 0.382964
v -0.201752 0.260785 -0.282123
v -0.201752 0.260785 -0.170271
v -0.201752 0.260785 -0.058419
v -0.201752 0.260785 0.053433
v -0.201752 0.260785 0.165285
v -0.201752 0.260785 0.277137
v 0.048971 0.260785 0.279630
v 0.048971 0.260785 0.167778
v 0.048971 0.260785 0.055926
v 0.048971 0.260785 -0.055926
v 0.048971 0.260785 -0.167778
v 0.048971 0.260785 -0.279630
v -0.048971 -0.258381 0.279630
v -0.048971 -0.258381 0.167778
v -0.048971 -0.258381 0.055926
v -0.048971 -0.258381 -0.055926
v -0.048971 -0.258381 -0.167778
v -0.048971 -0.258381 -0.279630
v 0.048971 -0.258381 -0.279630
v 0.048971 -0.258381 -0.167778
v 0.048971 -0.258381 -0.055926
v 0.048971 -0.258381 0.055926
v 0.048971 -0.258381 0.167778
v 0.048971 -0.258381 0.279630
v 0.048971 0.242547 0.279630
v 0.048971 0.242547 0.167778
v 0.048971 0.242547 0.055926
v 0.048971 0.242547 -0.055926
v 0.048971 0.242547 -0.167778
v 0.048971 0.242547 -0.279630
v 0.048971 -0.242547 -0.279630
v 0.048971 -0.242547 -0.167778
v 0.048971 -0.242547 -0.055926
v 0.048971 -0.242547 0.055926
v 0.048971 -0.242547 0.167778
v 0.048971 -0.242547 0.279630
v 0.028108 0.234805 0.230669
v 0.028108 0.234805 0.216739
v 0.028108 0.234672 0.007157
v 0.028108 0.234672 -0.007157
v 0.028108 0.234376 -0.216638
v 0.028108 0.234376 -0.230770
v 0.028108 -0.234376 -0.230770
v 0.028108 -0.234376 -0.216638
v 0.028108 -0.234672 -0.007157
v 0.028108 -0.234672 0.007157
v 0.028108 -0.234805 0.216739
v 0.028108 -0.234805 0.230669
v 0.028108 0.242547 -0.167778
v 0.028108 0.242547 -0.279630
v 0.028108 -0.242547 -0.279630
v 0.028108 -0.242547 -0.167778
v -0.009237 0.234376 -0.216638
v -0.009237 0.234376 -0.230770
v -0.009237 -0.234376 -0.230770
v -0.009237 -0.234376 -0.216638
v 0.028108 0.242547 0.055926
v 0.028108 0.242547 -0.055926
v 0.028108 -0.242547 -0.055926
v 0.028108 -0.242547 0.055926
v -0.009237 0.234672 0.007157
v -0.009237 0.234672 -0.007157
v -0.009237 -0.234672 -0.007157
v -0.009237 -0.234672 0.007157
v 0.028108 0.242547 0.279630
v 0.028108 0.242547 0.167778
v 0.028108 -0.242547 0.167778
v 0.028108 -0.242547 0.279630
v -0.009237 0.234805 0.230669
v -0.009237 0.234805 0.216739
v -0.009237 -0.234805 0.216739
v -0.009237 -0.234805 0.230669
v -0.360214 -0.124402 0.277137
v -0.360214 -0.124402 0.397507
v -0.270365 -0.258381 -0.400000
v -0.360214 -0.124402 -0.402493
v -0.270365 -0.258381 -0.279630
v -0.270365 -0.258381 0.400000
v -0.360214 -0.124402 -0.282123
v -0.360214 -0.124402 -0.170271
v -0.360214 -0.124402 -0.058419
v -0.360214 -0.124402 0.053433
v -0.360214 -0.124402 0.165285
v -0.270365 -0.258381 0.279630
v -0.270365 -0.258381 0.167778
v -0.270365 -0.258381 0.055926
v -0.270365 -0.258381 -0.055926
v -0.270365 -0.258381 -0.167778
vn -0.0000 1.0000 -0.0000
vn 0.0072 -0.0013 -1.0000
vn -0.0000 -1.0000 -0.0000
vn -0.0072 0.0013 1.0000
vn -0.9248 0.3805 -0.0000
vn 1.0000 -0.0000 -0.0000
vn -0.0000 -0.0000 -1.0000
vn -0.0000 -0.0000 1.0000
vn 0.0056 -0.0055 -1.0000
vn -0.8305 -0.5570 -0.0000
vn -0.0056 0.0055 1.0000
vt 0.375000 0.214286
vt 0.625000 0.214286
vt 0.625000 0.250000
vt 0.375000 0.250000
vt 0.625000 0.500000
vt 0.375000 0.500000
vt 0.375000 0.714286
vt 0.625000 0.714286
vt 0.625000 0.750000
vt 0.375000 0.750000
vt 0.625000 1.000000
vt 0.375000 1.000000
vt 0.375000 0.178571
vt 0.633204 0.539517
vt 0.633204 0.505324
vt 0.866796 0.539517
vt 0.866796 0.505324
vt 0.875000 0.500000
vt 0.875000 0.535714
vt 0.633204 0.710483
vt 0.633204 0.744676
vt 0.866796 0.744676
vt 0.875000 0.750000
vt 0.866796 0.710483
vt 0.866796 0.573710
vt 0.866796 0.607903
vt 0.866796 0.642097
vt 0.866796 0.676290
vt 0.862862 0.542015
vt 0.862862 0.571212
vt 0.633204 0.573710
vt 0.633204 0.607903
vt 0.863004 0.639689
vt 0.636996 0.639689
vt 0.633204 0.642097
vt 0.633204 0.676290
vt 0.863069 0.708116
vt 0.636932 0.708116
vt 0.625000 0.535714
vt 0.625000 0.571429
vt 0.625000 0.607143
vt 0.625000 0.642857
vt 0.625000 0.678571
vt 0.875000 0.714286
vt 0.875000 0.678571
vt 0.875000 0.642857
vt 0.875000 0.607143
vt 0.875000 0.571429
vt 0.375000 0.607143
vt 0.375000 0.642857
vt 0.375000 0.678571
vt 0.375000 0.035714
vt 0.375000 0.071429
vt 0.375000 0.535714
vt 0.375000 0.571429
vt 0.375000 0.000000
vt 0.625000 0.000000
vt 0.625000 0.035714
vt 0.625000 0.071429
vt 0.625000 0.107143
vt 0.375000 0.107143
vt 0.625000 0.142857
vt 0.375000 0.142857
vt 0.625000 0.178571
vt 0.637139 0.542015
vt 0.637139 0.571212
vt 0.863004 0.610311
vt 0.636996 0.610311
vt 0.863068 0.678657
vt 0.636932 0.678656
vt 0.125000 0.714286
vt 0.125000 0.750000
vt 0.125000 0.500000
vt 0.125000 0.535714
vt 0.125000 0.571429
vt 0.125000 0.607143
vt 0.125000 0.642857
vt 0.125000 0.678571
s 0
f 17/1/1 28/2/1 10/3/1 3/4/1
f 3/4/2 10/3/2 11/5/2 7/6/2
f 29/7/3 40/8/3 12/9/3 5/10/3
f 5/10/4 12/9/4 9/11/4 1/12/4
f 18/13/5 17/1/5 95/1/5 96/13/5
f 47/14/1 8/15/1 15/15/1 67/14/1
f 46/16/6 4/17/6 10/18/6 28/19/6
f 4/17/6 8/15/6 11/5/6 10/18/6
f 52/20/6 6/21/6 12/9/6 40/8/6
f 6/21/6 2/22/6 9/23/6 12/9/6
f 84/20/6 81/24/6 13/22/6 16/21/6
f 41/24/3 2/22/3 13/22/3 81/24/3
f 2/22/7 6/21/7 16/21/7 13/22/7
f 8/15/8 4/17/8 14/17/8 15/15/8
f 4/17/3 46/16/3 66/16/3 14/17/3
f 46/16/3 45/25/3 65/25/3 66/16/3
f 45/25/3 44/26/3 74/26/3 65/25/3
f 44/26/3 43/27/3 73/27/3 74/26/3
f 43/27/3 42/28/3 82/28/3 73/27/3
f 42/28/3 41/24/3 81/24/3 82/28/3
f 15/15/6 14/17/6 66/16/6 67/14/6
f 58/29/3 57/30/3 69/30/3 70/29/3
f 68/31/6 65/25/6 74/26/6 75/32/6
f 55/33/7 62/34/7 80/34/7 77/33/7
f 76/35/6 73/27/6 82/28/6 83/36/6
f 53/37/7 64/38/7 88/38/7 85/37/7
f 8/15/6 47/14/6 35/39/6 11/5/6
f 47/14/6 48/31/6 36/40/6 35/39/6
f 48/31/6 49/32/6 37/41/6 36/40/6
f 49/32/6 50/35/6 38/42/6 37/41/6
f 50/35/6 51/36/6 39/43/6 38/42/6
f 51/36/6 52/20/6 40/8/6 39/43/6
f 2/22/6 41/24/6 23/44/6 9/23/6
f 41/24/6 42/28/6 24/45/6 23/44/6
f 42/28/6 43/27/6 25/46/6 24/45/6
f 43/27/6 44/26/6 26/47/6 25/46/6
f 44/26/6 45/25/6 27/48/6 26/47/6
f 45/25/6 46/16/6 28/19/6 27/48/6
f 6/21/1 52/20/1 84/20/1 16/21/1
f 52/20/1 51/36/1 83/36/1 84/20/1
f 51/36/1 50/35/1 76/35/1 83/36/1
f 50/35/1 49/32/1 75/32/1 76/35/1
f 49/32/1 48/31/1 68/31/1 75/32/1
f 48/31/1 47/14/1 67/14/1 68/31/1
f 32/49/3 31/50/3 102/50/3 103/49/3
f 17/1/5 3/4/5 92/4/5 95/1/5
f 31/50/3 30/51/3 101/51/3 102/50/3
f 30/51/3 29/7/3 100/7/3 101/51/3
f 3/4/9 7/6/9 91/6/9 92/4/9
f 22/52/5 21/53/5 99/53/5 89/52/5
f 7/6/3 11/5/3 35/39/3 34/54/3
f 34/54/3 35/39/3 36/40/3 33/55/3
f 33/55/3 36/40/3 37/41/3 32/49/3
f 32/49/3 37/41/3 38/42/3 31/50/3
f 31/50/3 38/42/3 39/43/3 30/51/3
f 30/51/3 39/43/3 40/8/3 29/7/3
f 1/56/1 9/57/1 23/58/1 22/52/1
f 22/52/1 23/58/1 24/59/1 21/53/1
f 21/53/1 24/59/1 25/60/1 20/61/1
f 20/61/1 25/60/1 26/62/1 19/63/1
f 19/63/1 26/62/1 27/64/1 18/13/1
f 18/13/1 27/64/1 28/2/1 17/1/1
f 57/30/6 58/29/6 66/16/6 65/25/6
f 59/65/6 60/66/6 68/31/6 67/14/6
f 58/29/6 59/65/6 67/14/6 66/16/6
f 60/66/6 57/30/6 65/25/6 68/31/6
f 71/65/6 70/29/6 69/30/6 72/66/6
f 57/30/7 60/66/7 72/66/7 69/30/7
f 60/66/1 59/65/1 71/65/1 72/66/1
f 59/65/8 58/29/8 70/29/8 71/65/8
f 55/33/6 56/67/6 74/26/6 73/27/6
f 61/68/6 62/34/6 76/35/6 75/32/6
f 56/67/6 61/68/6 75/32/6 74/26/6
f 62/34/6 55/33/6 73/27/6 76/35/6
f 79/68/6 78/67/6 77/33/6 80/34/6
f 62/34/1 61/68/1 79/68/1 80/34/1
f 61/68/8 56/67/8 78/67/8 79/68/8
f 56/67/3 55/33/3 77/33/3 78/67/3
f 53/37/6 54/69/6 82/28/6 81/24/6
f 63/70/6 64/38/6 84/20/6 83/36/6
f 54/69/6 63/70/6 83/36/6 82/28/6
f 64/38/6 53/37/6 81/24/6 84/20/6
f 87/70/6 86/69/6 85/37/6 88/38/6
f 64/38/1 63/70/1 87/70/1 88/38/1
f 63/70/8 54/69/8 86/69/8 87/70/8
f 54/69/3 53/37/3 85/37/3 86/69/3
f 89/71/10 100/7/10 94/10/10 90/72/10
f 92/73/10 91/6/10 93/54/10 95/74/10
f 95/74/10 93/54/10 104/55/10 96/75/10
f 96/75/10 104/55/10 103/49/10 97/76/10
f 97/76/10 103/49/10 102/50/10 98/77/10
f 98/77/10 102/50/10 101/51/10 99/78/10
f 99/78/10 101/51/10 100/7/10 89/71/10
f 33/55/3 32/49/3 103/49/3 104/55/3
f 7/6/3 34/54/3 93/54/3 91/6/3
f 1/56/5 22/52/5 89/52/5 90/56/5
f 19/63/5 18/13/5 96/13/5 97/63/5
f 34/54/3 33/55/3 104/55/3 93/54/3
f 20/61/5 19/63/5 97/63/5 98/61/5
f 21/53/5 20/61/5 98/61/5 99/53/5
f 5/10/11 1/12/11 90/12/11 94/10/11
f 29/7/3 5/10/3 94/10/3 100/7/3
