# Blender 3.6.2
# www.blender.org
o Cube
v -0.030371 -0.011003 0.019980
v -0.030371 0.011003 0.019980
v -0.030371 -0.011003 -0.019980
v -0.030371 0.011003 -0.019980
v 0.030371 -0.011003 0.019980
v 0.030371 0.011003 0.019980
v 0.030371 -0.011003 -0.019980
v 0.030371 0.011003 -0.019980
v 0.021694 -0.011003 -0.019980
v 0.013016 -0.011003 -0.019980
v 0.004339 -0.011003 -0.019980
v -0.004339 -0.011003 -0.019980
v -0.013016 -0.011003 -0.019980
v -0.021694 -0.011003 -0.019980
v -0.021694 0.011003 -0.019980
v -0.013016 0.009931 -0.019980
v -0.004339 0.008126 -0.019980
v 0.004339 0.008126 -0.019980
v 0.013016 0.009931 -0.019980
v 0.021694 0.011003 -0.019980
v -0.021694 -0.011003 0.019980
v -0.013016 -0.011003 0.019980
v -0.004339 -0.011003 0.019980
v 0.004339 -0.011003 0.019980
v 0.013016 -0.011003 0.019980
v 0.021694 -0.011003 0.019980
v 0.021694 0.011003 0.019980
v 0.013016 0.009931 0.019980
v 0.004339 0.008126 0.019980
v -0.004339 0.008126 0.019980
v -0.013016 0.009931 0.019980
v -0.021694 0.011003 0.019980
vn -1.0000 -0.0000 -0.0000
vn -0.0000 -0.0000 -1.0000
vn 1.0000 -0.0000 -0.0000
vn -0.0000 -0.0000 1.0000
vn -0.0000 -1.0000 -0.0000
vn -0.0000 1.0000 -0.0000
vn -0.1227 0.9924 -0.0000
vn -0.2036 0.9791 -0.0000
vn 0.2036 0.9791 -0.0000
vn 0.1227 0.9924 -0.0000
vt 0.375000 0.000000
vt 0.625000 0.000000
vt 0.625000 0.250000
vt 0.375000 0.250000
vt 0.375000 0.464286
vt 0.625000 0.464286
vt 0.625000 0.500000
vt 0.375000 0.500000
vt 0.625000 0.750000
vt 0.375000 0.750000
vt 0.375000 0.964286
vt 0.625000 0.964286
vt 0.625000 1.000000
vt 0.375000 1.000000
vt 0.339286 0.500000
vt 0.339286 0.750000
vt 0.839286 0.500000
vt 0.875000 0.500000
vt 0.875000 0.750000
vt 0.839286 0.750000
vt 0.660714 0.500000
vt 0.660714 0.750000
vt 0.696429 0.500000
vt 0.696429 0.750000
vt 0.732143 0.500000
vt 0.732143 0.750000
vt 0.767857 0.500000
vt 0.767857 0.750000
vt 0.803571 0.500000
vt 0.803571 0.750000
vt 0.125000 0.500000
vt 0.160714 0.500000
vt 0.160714 0.750000
vt 0.125000 0.750000
vt 0.196429 0.500000
vt 0.196429 0.750000
vt 0.232143 0.500000
vt 0.232143 0.750000
vt 0.267857 0.500000
vt 0.267857 0.750000
vt 0.303571 0.500000
vt 0.303571 0.750000
vt 0.625000 0.785714
vt 0.375000 0.785714
vt 0.625000 0.821429
vt 0.375000 0.821429
vt 0.625000 0.857143
vt 0.375000 0.857143
vt 0.625000 0.892857
vt 0.375000 0.892857
vt 0.625000 0.928571
vt 0.375000 0.928571
vt 0.625000 0.285714
vt 0.375000 0.285714
vt 0.625000 0.321429
vt 0.375000 0.321429
vt 0.625000 0.357143
vt 0.375000 0.357143
vt 0.625000 0.392857
vt 0.375000 0.392857
vt 0.625000 0.428571
vt 0.375000 0.428571
s 0
f 1/1/1 2/2/1 4/3/1 3/4/1
f 9/5/2 20/6/2 8/7/2 7/8/2
f 7/8/3 8/7/3 6/9/3 5/10/3
f 21/11/4 32/12/4 2/13/4 1/14/4
f 9/15/5 7/8/5 5/10/5 26/16/5
f 15/17/6 4/18/6 2/19/6 32/20/6
f 8/7/6 20/21/6 27/22/6 6/9/6
f 20/21/7 19/23/7 28/24/7 27/22/7
f 19/23/8 18/25/8 29/26/8 28/24/8
f 18/25/6 17/27/6 30/28/6 29/26/6
f 17/27/9 16/29/9 31/30/9 30/28/9
f 16/29/10 15/17/10 32/20/10 31/30/10
f 3/31/5 14/32/5 21/33/5 1/34/5
f 14/32/5 13/35/5 22/36/5 21/33/5
f 13/35/5 12/37/5 23/38/5 22/36/5
f 12/37/5 11/39/5 24/40/5 23/38/5
f 11/39/5 10/41/5 25/42/5 24/40/5
f 10/41/5 9/15/5 26/16/5 25/42/5
f 5/10/4 6/9/4 27/43/4 26/44/4
f 26/44/4 27/43/4 28/45/4 25/46/4
f 25/46/4 28/45/4 29/47/4 24/48/4
f 24/48/4 29/47/4 30/49/4 23/50/4
f 23/50/4 30/49/4 31/51/4 22/52/4
f 22/52/4 31/51/4 32/12/4 21/11/4
f 3/4/2 4/3/2 15/53/2 14/54/2
f 14/54/2 15/53/2 16/55/2 13/56/2
f 13/56/2 16/55/2 17/57/2 12/58/2
f 12/58/2 17/57/2 18/59/2 11/60/2
f 11/60/2 18/59/2 19/61/2 10/62/2
f 10/62/2 19/61/2 20/6/2 9/5/2
