# Blender 3.6.1
# www.blender.org
o Task1_Button_V01
v -0.158842 -0.026898 0.158842
v -0.115308 0.026898 0.115308
v -0.158842 -0.026898 -0.158842
v -0.115308 0.026898 -0.115308
v 0.158842 -0.026898 0.158842
v 0.115308 0.026898 0.115308
v 0.158842 -0.026898 -0.158842
v 0.115308 0.026898 -0.115308
v -0.158842 0.026898 0.158842
v -0.158842 0.026898 -0.158842
v 0.158842 0.026898 -0.158842
v 0.158842 0.026898 0.158842
v -0.097370 0.066398 0.097370
v -0.097370 0.066398 -0.097370
v 0.097370 0.066398 -0.097370
v 0.097370 0.066398 0.097370
vn -1.0000 -0.0000 -0.0000
vn -0.0000 -0.0000 -1.0000
vn 1.0000 -0.0000 -0.0000
vn -0.0000 -0.0000 1.0000
vn -0.0000 -1.0000 -0.0000
vn -0.0000 0.4135 -0.9105
vn -0.0000 1.0000 -0.0000
vn 0.9105 0.4135 -0.0000
vn -0.9105 0.4135 -0.0000
vn -0.0000 0.4135 0.9105
vt 0.375000 0.000000
vt 0.625000 0.000000
vt 0.625000 0.250000
vt 0.375000 0.250000
vt 0.625000 0.500000
vt 0.375000 0.500000
vt 0.625000 0.750000
vt 0.375000 0.750000
vt 0.625000 1.000000
vt 0.375000 1.000000
vt 0.125000 0.500000
vt 0.125000 0.750000
vt 0.659259 0.534259
vt 0.840741 0.534259
vt 0.840741 0.715741
vt 0.875000 0.500000
vt 0.875000 0.750000
vt 0.659259 0.715741
s 0
f 1/1/1 9/2/1 10/3/1 3/4/1
f 3/4/2 10/3/2 11/5/2 7/6/2
f 7/6/3 11/5/3 12/7/3 5/8/3
f 5/8/4 12/7/4 9/9/4 1/10/4
f 3/11/5 7/6/5 5/8/5 1/12/5
f 8/13/6 4/14/6 14/14/6 15/13/6
f 2/15/7 4/14/7 10/16/7 9/17/7
f 4/14/7 8/13/7 11/5/7 10/16/7
f 8/13/7 6/18/7 12/7/7 11/5/7
f 6/18/7 2/15/7 9/17/7 12/7/7
f 15/13/7 14/14/7 13/15/7 16/18/7
f 6/18/8 8/13/8 15/13/8 16/18/8
f 4/14/9 2/15/9 13/15/9 14/14/9
f 2/15/10 6/18/10 16/18/10 13/15/10
