# Blender 3.6.1
# www.blender.org
o Panel_V01
v 1.674935 -0.051488 -0.961675
v 1.674935 -0.212422 -0.887788
v 1.674935 0.727982 0.736097
v 1.674935 0.567048 0.809984
v -1.674275 -0.051488 -0.961675
v -1.674275 -0.212422 -0.887788
v -1.674275 0.727982 0.736097
v -1.674275 0.567048 0.809984
v 1.485553 -0.212422 -0.887788
v 1.293987 -0.212422 -0.887788
v -1.292478 -0.212422 -0.887788
v -1.487392 -0.212422 -0.887788
v 1.485553 0.727982 0.736097
v 1.293987 0.727982 0.736097
v -1.292478 0.727982 0.736097
v -1.487392 0.727982 0.736097
v -1.487392 0.567048 0.809984
v -1.292478 0.567048 0.809984
v 1.293987 0.567048 0.809984
v 1.485553 0.567048 0.809984
v -1.487392 -0.051488 -0.961675
v -1.292478 -0.051488 -0.961675
v 1.293987 -0.051488 -0.961675
v 1.485553 -0.051488 -0.961675
v 1.485553 -0.212422 -0.887788
v 1.293987 -0.212422 -0.887788
v -1.292478 -0.212422 -0.887788
v -1.487392 -0.212422 -0.887788
v -1.487392 0.567048 0.809984
v -1.292478 0.567048 0.809984
v 1.293987 0.567048 0.809984
v 1.485553 0.567048 0.809984
v 1.485553 -0.950653 -0.582447
v 1.293987 -0.950653 -0.582447
v -1.292478 -0.950653 -0.582447
v -1.487392 -0.950653 -0.582447
v -1.487392 -0.950653 1.115325
v -1.292478 -0.950653 1.115325
v 1.293987 -0.950653 1.115325
v 1.485553 -0.950653 1.115325
vn -0.0000 0.9088 -0.4172
vn -0.0000 0.4172 0.9088
vn -1.0000 -0.0000 -0.0000
vn -0.0000 -0.9088 0.4172
vn 1.0000 -0.0000 -0.0000
vn -0.0000 -0.4172 -0.9088
vn -0.0000 1.0000 -0.0000
vn -0.0000 -0.3822 -0.9241
vn -0.0000 0.1972 0.9804
vn -0.0000 -1.0000 -0.0000
vt 0.825000 0.500000
vt 0.875000 0.500000
vt 0.875000 0.750000
vt 0.825000 0.750000
vt 0.375000 0.950000
vt 0.625000 0.950000
vt 0.625000 1.000000
vt 0.375000 1.000000
vt 0.375000 0.000000
vt 0.625000 0.000000
vt 0.625000 0.250000
vt 0.375000 0.250000
vt 0.325000 0.500000
vt 0.375000 0.500000
vt 0.375000 0.750000
vt 0.325000 0.750000
vt 0.625000 0.500000
vt 0.625000 0.750000
vt 0.375000 0.450000
vt 0.625000 0.450000
vt 0.625000 0.300000
vt 0.375000 0.300000
vt 0.625000 0.350000
vt 0.375000 0.350000
vt 0.625000 0.400000
vt 0.375000 0.400000
vt 0.125000 0.500000
vt 0.175000 0.500000
vt 0.175000 0.750000
vt 0.125000 0.750000
vt 0.375000 0.800000
vt 0.375000 0.850000
vt 0.225000 0.500000
vt 0.275000 0.500000
vt 0.275000 0.750000
vt 0.225000 0.750000
vt 0.625000 0.800000
vt 0.625000 0.850000
vt 0.625000 0.900000
vt 0.375000 0.900000
vt 0.675000 0.500000
vt 0.675000 0.750000
vt 0.725000 0.500000
vt 0.725000 0.750000
vt 0.775000 0.500000
vt 0.775000 0.750000
s 0
f 21/1/1 5/2/1 7/3/1 16/4/1
f 17/5/2 16/6/2 7/7/2 8/8/2
f 8/9/3 7/10/3 5/11/3 6/12/3
f 9/13/4 2/14/4 4/15/4 20/16/4
f 2/14/5 1/17/5 3/18/5 4/15/5
f 9/19/6 24/20/6 1/17/6 2/14/6
f 6/12/6 5/11/6 21/21/6 12/22/6
f 12/22/6 21/21/6 22/23/6 11/24/6
f 11/24/6 22/23/6 23/25/6 10/26/6
f 10/26/6 23/25/6 24/20/6 9/19/6
f 6/27/4 12/28/4 17/29/4 8/30/4
f 20/31/7 19/32/7 31/32/7 32/31/7
f 11/33/4 10/34/4 19/35/4 18/36/4
f 19/35/7 10/34/7 26/34/7 31/35/7
f 4/15/2 3/18/2 13/37/2 20/31/2
f 20/31/2 13/37/2 14/38/2 19/32/2
f 19/32/2 14/38/2 15/39/2 18/40/2
f 18/40/2 15/39/2 16/6/2 17/5/2
f 1/17/1 24/41/1 13/42/1 3/18/1
f 24/41/1 23/43/1 14/44/1 13/42/1
f 23/43/1 22/45/1 15/46/1 14/44/1
f 22/45/1 21/1/1 16/4/1 15/46/1
f 26/26/8 25/19/8 33/19/8 34/26/8
f 30/40/9 29/5/9 37/5/9 38/40/9
f 17/29/7 12/28/7 28/28/7 29/29/7
f 18/40/7 17/5/7 29/5/7 30/40/7
f 12/22/7 11/24/7 27/24/7 28/22/7
f 9/13/7 20/16/7 32/16/7 25/13/7
f 10/26/7 9/19/7 25/19/7 26/26/7
f 11/33/7 18/36/7 30/36/7 27/33/7
f 36/28/10 35/33/10 38/36/10 37/29/10
f 34/34/10 33/13/10 40/16/10 39/35/10
f 25/13/5 32/16/5 40/16/5 33/13/5
f 27/33/5 30/36/5 38/36/5 35/33/5
f 32/31/9 31/32/9 39/32/9 40/31/9
f 28/22/8 27/24/8 35/24/8 36/22/8
f 31/35/3 26/34/3 34/34/3 39/35/3
f 29/29/3 28/28/3 36/28/3 37/29/3
